<?xml version="1.0" encoding="utf-8"?>
<!-- Generator: Adobe Illustrator 21.0.0, SVG Export Plug-In . SVG Version: 6.00 Build 0)  -->
<svg version="1.1" id="Layer_1" xmlns="http://www.w3.org/2000/svg" xmlns:xlink="http://www.w3.org/1999/xlink" x="0px" y="0px"
	 viewBox="0 0 512 512" style="enable-background:new 0 0 512 512;" xml:space="preserve">
<style type="text/css">
	.st0{fill:#FFFFFF;}
</style>
<path class="st0" d="M423.5,72.5h-335C67.9,72.5,51,89.4,51,110v0c0,20.6,16.9,37.5,37.5,37.5h335c20.6,0,37.5-16.9,37.5-37.5v0
	C461,89.4,444.1,72.5,423.5,72.5z"/>
<path class="st0" d="M423.5,218.5h-335C67.9,218.5,51,235.4,51,256v0c0,20.6,16.9,37.5,37.5,37.5h335c20.6,0,37.5-16.9,37.5-37.5v0
	C461,235.4,444.1,218.5,423.5,218.5z"/>
<path class="st0" d="M423.5,364.5h-335C67.9,364.5,51,381.4,51,402v0c0,20.6,16.9,37.5,37.5,37.5h335c20.6,0,37.5-16.9,37.5-37.5v0
	C461,381.4,444.1,364.5,423.5,364.5z"/>
</svg>
