<?xml version="1.0" encoding="utf-8"?>
<!-- Generator: Adobe Illustrator 21.0.0, SVG Export Plug-In . SVG Version: 6.00 Build 0)  -->
<svg version="1.1" id="Layer_1" xmlns="http://www.w3.org/2000/svg" xmlns:xlink="http://www.w3.org/1999/xlink" x="0px" y="0px"
	 viewBox="0 0 512 512" style="enable-background:new 0 0 512 512;" xml:space="preserve">
<style type="text/css">
	.st0{fill:#FFFFFF;}
</style>
<path class="st0" d="M256,72.5L256,72.5c-20.6,0-37.5,16.9-37.5,37.5v0c0,20.6,16.9,37.5,37.5,37.5h0c20.6,0,37.5-16.9,37.5-37.5v0
	C293.5,89.4,276.6,72.5,256,72.5z"/>
<path class="st0" d="M256,218.5L256,218.5c-20.6,0-37.5,16.9-37.5,37.5v0c0,20.6,16.9,37.5,37.5,37.5h0c20.6,0,37.5-16.9,37.5-37.5
	v0C293.5,235.4,276.6,218.5,256,218.5z"/>
<path class="st0" d="M256,364.5L256,364.5c-20.6,0-37.5,16.9-37.5,37.5v0c0,20.6,16.9,37.5,37.5,37.5h0c20.6,0,37.5-16.9,37.5-37.5
	v0C293.5,381.4,276.6,364.5,256,364.5z"/>
</svg>
